<svg width="22" height="22" viewBox="0 0 22 22" fill="none" xmlns="http://www.w3.org/2000/svg">
<path d="M11 18V9M11 11L6.5 7V4.5M11 13L15.5 9V6.5" stroke="#13121F" stroke-width="1.7" stroke-linecap="round"/>
<path d="M6.5 6.5C7.60457 6.5 8.5 5.60457 8.5 4.5C8.5 3.39543 7.60457 2.5 6.5 2.5C5.39543 2.5 4.5 3.39543 4.5 4.5C4.5 5.60457 5.39543 6.5 6.5 6.5Z" fill="#13121F"/>
<path d="M15.5 8.5C16.6046 8.5 17.5 7.60457 17.5 6.5C17.5 5.39543 16.6046 4.5 15.5 4.5C14.3954 4.5 13.5 5.39543 13.5 6.5C13.5 7.60457 14.3954 8.5 15.5 8.5Z" fill="#13121F"/>
</svg>
